<svg xmlns="http://www.w3.org/2000/svg" xmlns:xlink="http://www.w3.org/1999/xlink" xmlns:inkscape="http://www.inkscape.org/namespaces/inkscape" version="1.1" width="1109.55" height="330.81" viewBox="0 0 1109.55 330.81">
<defs>
<clipPath id="clip_0">
<path transform="matrix(1,0,0,-1,0,330.81)" d="M0 330.81H1109.548V0H0Z"/>
</clipPath>
</defs>
<path transform="matrix(1,0,0,-1,0,330.81)" d="M0 0H1109.548V330.809H0Z" fill="#ffffff"/>
<g clip-path="url(#clip_0)">
<path transform="matrix(1,0,0,-1,258.8644,140.9743)" d="M0 0H-92.78C-106.423 0-117.495-11.073-117.495-24.715-117.495-38.357-106.423-49.405-92.78-49.405H-32.105C-41.991-73.626-65.841-90.729-93.596-90.729-130.223-90.729-160.029-60.923-160.029-24.295-160.029 12.357-130.223 42.164-93.596 42.164H70.512C82.128 42.164 91.568 32.698 91.568 21.082 91.568 9.465 82.128 0 70.512 0H21.996ZM87.54-47.305C118.187-39.692 140.999-11.913 140.999 21.082 140.999 59.958 109.363 91.569 70.512 91.569H-93.596C-157.483 91.569-209.459 39.593-209.459-24.295-209.459-88.184-157.483-140.159-93.596-140.159-69.029-140.159-46.192-132.473-27.434-119.349V-140.431H21.996V-49.405H29.732L89.74-140.431H148.933Z" fill="#aa712a"/>
<path transform="matrix(1,0,0,-1,522.6681,156.2887)" d="M0 0C-10.18 0-18.886 2.167-26.114 6.494-33.345 10.821-38.887 16.816-42.739 24.476-46.592 32.132-48.519 41.029-48.519 51.16V54.298C-48.519 64.714-46.592 73.859-42.739 81.732-38.887 89.606-33.477 95.763-26.506 100.213-19.54 104.66-11.346 106.883-1.927 106.883 5.683 106.883 12.663 105.886 19.015 103.887 25.364 101.889 30.895 98.938 35.603 95.039V72.423H20.976L18.336 86.622C16.385 88.189 13.816 89.438 10.632 90.367 7.442 91.293 3.757 91.758-.43 91.758-6.233 91.758-11.299 90.198-15.625 87.083-19.954 83.967-23.297 79.603-25.651 73.99-28.006 68.377-29.184 61.861-29.184 54.441V51.16C-29.184 43.834-28.03 37.471-25.723 32.072-23.415 26.673-20.062 22.489-15.661 19.516-11.263 16.542-5.875 15.058 .499 15.058 4.398 15.058 7.907 15.414 11.023 16.126 14.139 16.838 16.743 17.72 18.835 18.766V37.816L2.925 38.889V52.656H38.314V10.989C34.033 7.803 28.741 5.174 22.44 3.104 16.136 1.035 8.655 0 0 0" fill="#1b3664"/>
<path transform="matrix(1,0,0,-1,639.3966,154.7887)" d="M0 0-18.697 46.375-.854 50.016 15.125 13.7 23.614 11.844V0ZM-36.604 57.151H-19.196C-12.773 57.151-8.016 58.471-4.927 61.111-1.837 63.75-.284 67.589-.284 72.632-.284 77.582-1.807 81.53-4.852 84.477-7.896 87.427-12.466 88.901-18.556 88.901H-36.604ZM-67.213 0V11.702L-56.012 13.842V89.973L-67.213 92.11V103.883H-18.556C-10.704 103.883-3.959 102.672 1.673 100.247 7.312 97.821 11.616 94.322 14.585 89.756 17.562 85.193 19.047 79.723 19.047 73.349 19.047 67.26 17.57 61.883 14.623 57.223 11.676 52.559 7.552 48.91 2.242 46.271-3.06 43.631-9.208 42.285-16.2 42.24L-36.604 42.169V13.842L-25.401 11.702V0Z" fill="#1b3664"/>
<path transform="matrix(1,0,0,-1,718.8087,141.0177)" d="M0 0C6.089 0 11.132 1.556 15.128 4.672 19.121 7.788 22.106 12.152 24.082 17.765 26.054 23.377 27.044 29.917 27.044 37.385V39.099C27.044 46.47 26.043 52.941 24.044 58.505 22.046 64.073 19.039 68.422 15.02 71.564 11 74.703 5.969 76.273-.071 76.273-5.97 76.273-10.893 74.714-14.84 71.598-18.788 68.482-21.75 64.145-23.723 58.577-25.698 53.012-26.685 46.519-26.685 39.099V37.385C-26.685 29.965-25.698 23.437-23.723 17.802-21.75 12.163-18.777 7.788-14.803 4.672-10.832 1.556-5.898 0 0 0M0-15.271C-6.944-15.271-13.247-13.974-18.908-11.383-24.569-8.788-29.433-5.125-33.497-.394-37.565 4.338-40.692 9.906-42.882 16.302-45.067 22.699-46.162 29.729-46.162 37.385V38.956C-46.162 46.567-45.067 53.571-42.882 59.967-40.692 66.364-37.565 71.932-33.497 76.664-29.433 81.395-24.581 85.073-18.942 87.687-13.307 90.304-7.016 91.612-.071 91.612 7.015 91.612 13.403 90.304 19.088 87.687 24.771 85.073 29.657 81.395 33.748 76.664 37.838 71.932 40.965 66.364 43.133 59.967 45.296 53.571 46.379 46.567 46.379 38.956V37.385C46.379 29.729 45.296 22.699 43.133 16.302 40.965 9.906 37.854 4.338 33.785-.394 29.717-5.125 24.832-8.788 19.121-11.383 13.415-13.974 7.041-15.271 0-15.271" fill="#1b3664"/>
<path transform="matrix(1,0,0,-1,824.7618,156.2887)" d="M0 0C-8.039 0-15.114 1.417-21.226 4.248-27.341 7.075-32.106 11.192-35.533 16.591-38.956 21.99-40.67 28.518-40.67 36.174V91.473L-51.802 93.61V105.383H-10.06V93.61L-21.263 91.473V36.174C-21.263 31.468-20.396 27.543-18.657 24.405-16.921 21.263-14.462 18.908-11.274 17.341-8.088 15.77-4.331 14.986 0 14.986 4.424 14.986 8.252 15.759 11.488 17.303 14.72 18.848 17.206 21.191 18.941 24.333 20.678 27.472 21.548 31.42 21.548 36.174V91.473L10.345 93.61V105.383H52.157V93.61L40.954 91.473V36.174C40.954 28.469 39.24 21.915 35.817 16.52 32.395 11.121 27.614 7.019 21.477 4.21 15.339 1.406 8.181 0 0 0" fill="#1b3664"/>
<path transform="matrix(1,0,0,-1,915.0909,101.278)" d="M0 0H18.478C24.566 0 29.155 1.642 32.249 4.923 35.342 8.208 36.887 12.392 36.887 17.483 36.887 22.62 35.342 26.887 32.249 30.291 29.155 33.688 24.566 35.39 18.478 35.39H0ZM-30.609-53.511V-41.809L-19.41-39.668V36.462L-30.609 38.6V50.373H-19.41 18.478C26.328 50.373 33.069 49.008 38.705 46.271 44.344 43.538 48.682 39.706 51.727 34.783 54.771 29.86 56.293 24.142 56.293 17.625 56.293 11.061 54.771 5.339 51.727 .465 48.682-4.413 44.344-8.204 38.705-10.915 33.069-13.625 26.328-14.982 18.478-14.982H0V-39.668L11.199-41.809V-53.511Z" fill="#1b3664"/>
<path transform="matrix(1,0,0,-1,978.59,154.7887)" d="M0 0V11.702L11.2 13.842V89.973L0 92.11V103.883H79.84V76.487H64.856L63.784 88.972H30.61V61.219H66.428V46.162H30.61V14.84H65.641L66.713 27.614H81.553V0Z" fill="#1b3664"/>
<path transform="matrix(1,0,0,-1,547.8292,281.4049)" d="M0 0-20.391 50.585-.934 54.556 16.499 14.941 25.76 12.92V0ZM-39.927 62.339H-20.937C-13.931 62.339-8.743 63.778-5.371 66.658-1.998 69.538-.312 73.726-.312 79.226-.312 84.621-1.973 88.93-5.292 92.146-8.614 95.363-13.596 96.972-20.235 96.972H-39.927ZM-73.315 0V12.763L-61.096 15.099V98.138L-73.315 100.474V113.315H-20.235C-11.676 113.315-4.319 111.992 1.828 109.345 7.977 106.701 12.673 102.889 15.916 97.905 19.157 92.926 20.779 86.957 20.779 80.006 20.779 73.362 19.171 67.502 15.953 62.418 12.736 57.33 8.235 53.348 2.45 50.469-3.335 47.589-10.041 46.123-17.667 46.07L-39.927 45.995V15.099L-27.708 12.763V0Z" fill="#1b3664"/>
<path transform="matrix(1,0,0,-1,622.7003,234.5544)" d="M0 0H30.587L16.654 40.316 15.563 43.582H15.099L13.929 40.159ZM-40.083-46.851V-34.088L-31.911-32.918 4.9 66.464H25.994L62.494-32.918 70.589-34.088V-46.851H33.31V-34.088L41.325-32.606 35.799-15.952H-5.216L-10.742-32.606-2.801-34.088V-46.851Z" fill="#1b3664"/>
<path transform="matrix(1,0,0,-1,702.9366,281.4049)" d="M0 0V14.244L56.038 96.972H19.534L17.824 82.417H1.556L2.257 113.315H81.875V99.54L25.608 16.265H66.854L68.646 31.053H84.833L83.745 0Z" fill="#1b3664"/>
<path transform="matrix(1,0,0,-1,796.8771,281.4049)" d="M0 0V12.763L12.144 15.099V98.138L0 100.474V113.315H12.144 43.038L75.106 32.845H75.571L106.624 113.315H149.899V100.474L137.68 98.138V15.099L149.899 12.763V0H104.292V12.763L117.134 15.099V39.147L117.444 89.499 117.055 89.578 82.501 2.1H66.854L31.445 89.034 30.977 88.956 32.222 41.013V15.099L45.606 12.763V0Z" fill="#1b3664"/>
<path transform="matrix(1,0,0,-1,989.1886,234.5544)" d="M0 0H30.588L16.655 40.316 15.563 43.582H15.099L13.93 40.159ZM-40.08-46.851V-34.088L-31.91-32.918 4.9 66.464H25.995L62.495-32.918 70.59-34.088V-46.851H33.31V-34.088L41.326-32.606 35.799-15.952H-5.215L-10.741-32.606-2.804-34.088V-46.851Z" fill="#1b3664"/>
<path transform="matrix(1,0,0,-1,0,330.81)" d="M0 146.377H49.405V195.782H0Z" fill="#ffffff"/>
<path transform="matrix(1,0,0,-1,0,330.81)" d="M1060.143 146.377H1109.548V195.782H1060.143Z" fill="#ffffff"/>
<path transform="matrix(1,0,0,-1,0,330.81)" d="M609.038 281.405H658.443V330.81H609.038Z" fill="#ffffff"/>
<path transform="matrix(1,0,0,-1,0,330.81)" d="M609.038 0H658.443V49.405H609.038Z" fill="#ffffff"/>
</g>
</svg>
